name analog
datacolumns 19
datarows 23
range 0.0 0.011
endheader
time	ground_force_vx	ground_force_vy	ground_force_vz	ground_force_px	ground_force_py	ground_force_pz	l_ground_force_vx	l_ground_force_vy	l_ground_force_vz	l_ground_force_px	l_ground_force_py	l_ground_force_pz	ground_torque_x	ground_torque_y	ground_torque_z	l_ground_torque_x	l_ground_torque_y	l_ground_torque_z
0.0	-0.0	-0.0	-0.0	-2.2592689990997314	21.955059051513672	-293.26287841796875	12.656054496765137	-21.96264266967773	-474.72955322265625	-0.0	-0.0	-0.0	-0.0	-0.0	-0.0	165340.671875	-21924.93359375	2989.596923828125
0.0005	-0.0	-0.0	-0.0	-1.9613906145095823	21.9549617767334	-294.7908020019531	12.42009735107422	-22.257064819335938	-471.5887451171875	-0.0	-0.0	-0.0	-0.0	-0.0	-0.0	165068.546875	-21802.87109375	2900.345947265625
0.001	-0.0	-0.0	-0.0	-2.2288036346435547	22.37027359008789	-296.91046142578125	12.30191707611084	-21.903778076171875	-471.70220947265625	-0.0	-0.0	-0.0	-0.0	-0.0	-0.0	163948.859375	-21538.078125	2811.473388671875
0.0015	-0.0	-0.0	-0.0	-2.024778366088867	22.19186782836914	-297.6044921875	12.391425132751465	-21.845081329345703	-468.6807861328125	-0.0	-0.0	-0.0	-0.0	-0.0	-0.0	163371.03125	-21165.349609375	2821.16162109375
0.002	-0.0	-0.0	-0.0	-2.290935039520264	22.430551528930664	-297.0456848144531	12.005026817321776	-21.84439849853516	-466.5869140625	-0.0	-0.0	-0.0	-0.0	-0.0	-0.0	162842.40625	-20702.765625	2732.331787109375
0.0025	-0.0	-0.0	-0.0	-2.493886947631836	22.58036994934082	-298.3166809082031	11.770554542541504	-22.109228134155277	-466.2200317382813	-0.0	-0.0	-0.0	-0.0	-0.0	-0.0	162393.4375	-20463.58203125	2663.162841796875
0.003	-0.0	-0.0	-0.0	-2.99625825881958	22.61298942565918	-300.5476379394531	11.618915557861328	-21.933582305908203	-465.1877746582031	-0.0	-0.0	-0.0	-0.0	-0.0	-0.0	161856.421875	-20085.375	2465.1748046875
0.0035	-0.0	-0.0	-0.0	-3.2421042919158936	22.667255401611328	-300.1008605957031	11.031461715698242	-22.11029815673828	-463.5552368164063	-0.0	-0.0	-0.0	-0.0	-0.0	-0.0	161445.84375	-19826.73828125	2316.024658203125
0.004	-0.0	-0.0	-0.0	-3.35686469078064	23.07458877563477	-301.8679504394531	10.795639038085938	-22.19719123840332	-463.66748046875	-0.0	-0.0	-0.0	-0.0	-0.0	-0.0	161076.984375	-19722.462890625	2206.733154296875
0.0045000000000000005	-0.0	-0.0	-0.0	-3.535092353820801	23.0235595703125	-302.7644958496094	10.497989654541016	-22.317033767700195	-461.2293090820313	-0.0	-0.0	-0.0	-0.0	-0.0	-0.0	160710.65625	-19023.8125	2206.458984375
0.005	-0.0	-0.0	-0.0	-4.014472961425781	23.057003021240234	-304.45263671875	10.469730377197266	-22.375444412231445	-462.0317993164063	-0.0	-0.0	-0.0	-0.0	-0.0	-0.0	160403.140625	-18946.12890625	2128.099609375
0.0055	-0.0	-0.0	-0.0	-4.042172431945801	23.404460906982425	-305.2329406738281	10.465871810913086	-22.34737777709961	-460.0707092285156	-0.0	-0.0	-0.0	-0.0	-0.0	-0.0	160400.1875	-18770.978515625	2028.3638916015625
0.006	-0.0	-0.0	-0.0	-4.488095760345459	23.64385414123535	-305.6355285644531	10.02431869506836	-22.317401885986328	-459.730712890625	-0.0	-0.0	-0.0	-0.0	-0.0	-0.0	159957.078125	-18429.287109375	1968.6864013671875
0.006500000000000001	-0.0	-0.0	-0.0	-4.453614234924316	23.50992202758789	-306.4789733886719	10.110630989074709	-22.342998504638672	-458.9047546386719	-0.0	-0.0	-0.0	-0.0	-0.0	-0.0	159804.953125	-18133.908203125	1878.9014892578125
0.007	-0.0	-0.0	-0.0	-4.933915138244629	23.739595413208008	-310.4451904296875	9.786062240600586	-21.966876983642575	-458.096923828125	-0.0	-0.0	-0.0	-0.0	-0.0	-0.0	159081.90625	-17839.619140625	1721.8946533203125
0.0075	-0.0	-0.0	-0.0	-5.317802429199219	24.41791534423828	-310.4602966308594	9.880146026611328	-22.13838768005371	-457.53033447265625	-0.0	-0.0	-0.0	-0.0	-0.0	-0.0	158936.515625	-17483.572265625	1822.0281982421875
0.008	-0.0	-0.0	-0.0	-5.410770893096924	24.47582244873047	-311.6277160644531	9.669475555419922	-21.995025634765625	-456.46142578125	-0.0	-0.0	-0.0	-0.0	-0.0	-0.0	158614.03125	-17049.9140625	1682.9075927734375
0.0085	-0.0	-0.0	-0.0	-5.450129985809326	24.7160701751709	-313.1309814453125	9.669475555419922	-22.135210037231445	-454.944580078125	-0.0	-0.0	-0.0	-0.0	-0.0	-0.0	157944.46875	-16901.75390625	1582.6492919921875
0.009000000000000001	-0.0	-0.0	-0.0	-5.59779691696167	24.89854431152344	-313.39410400390625	9.403343200683594	-22.229814529418945	-454.2592468261719	-0.0	-0.0	-0.0	-0.0	-0.0	-0.0	157969.734375	-16664.080078125	1639.508544921875
0.0095	-0.0	-0.0	-0.0	-6.035075664520264	24.89409065246582	-314.701171875	9.287358283996582	-22.083850860595703	-453.3061828613281	-0.0	-0.0	-0.0	-0.0	-0.0	-0.0	157303.4375	-16107.025390625	1356.42138671875
0.01	-0.0	-0.0	-0.0	-6.182143688201904	25.36622428894043	-315.6004638671875	9.225921630859377	-22.257064819335938	-451.1181335449219	-0.0	-0.0	-0.0	-0.0	-0.0	-0.0	157039.46875	-15840.37109375	1285.5445556640625
0.0105	-0.0	-0.0	-0.0	-6.628067970275879	25.36110115051269	-317.15557861328125	8.724494934082031	-22.080421447753903	-451.2252807617188	-0.0	-0.0	-0.0	-0.0	-0.0	-0.0	156441.0625	-15592.5693359375	1149.726318359375
0.011	-0.0	-0.0	-0.0	-7.189578533172607	25.491294860839844	-318.4239501953125	8.662757873535156	-22.29179573059082	-451.5589599609375	-0.0	-0.0	-0.0	-0.0	-0.0	-0.0	156165.96875	-15185.998046875	1013.0742797851562
